<?xml version="1.0" standalone="no"?>
<!DOCTYPE svg PUBLIC "-//W3C//DTD SVG 20010904//EN"
 "http://www.w3.org/TR/2001/REC-SVG-20010904/DTD/svg10.dtd">
<svg version="1.0" xmlns="http://www.w3.org/2000/svg"
 width="700.000000pt" height="700.000000pt" viewBox="0 0 700.000000 700.000000"
 preserveAspectRatio="xMidYMid meet">
<metadata>
Created by potrace 1.11, written by Peter Selinger 2001-2013
</metadata>
<g transform="translate(0.000000,700.000000) scale(0.100000,-0.100000)"
fill="#000000" stroke="none">
<path d="M1830 3315 l0 -2426 1043 4 c903 4 1058 6 1162 21 182 25 268 44 411
91 312 102 566 274 735 498 85 113 172 295 211 442 31 117 32 125 32 335 0
249 -11 309 -88 465 -57 114 -127 200 -228 280 -165 131 -358 209 -728 295
-124 29 -230 55 -237 59 -6 3 84 39 200 80 117 40 248 89 292 109 274 119 474
299 577 517 124 266 115 657 -22 961 -143 318 -500 544 -1007 639 -254 48
-263 48 -1335 52 l-1018 4 0 -2426z m1967 1839 c376 -55 574 -209 654 -510 30
-113 38 -350 14 -465 -66 -329 -288 -521 -677 -585 -85 -14 -194 -18 -620 -21
l-518 -5 0 801 0 801 521 0 c419 0 542 -3 626 -16z m165 -2088 c115 -22 227
-59 313 -104 98 -51 220 -173 269 -270 90 -178 107 -439 45 -663 -74 -268
-285 -455 -598 -532 -82 -19 -118 -21 -713 -24 l-628 -4 0 811 0 812 613 -5
c521 -3 625 -6 699 -21z"/>
</g>
</svg>
