<svg width="16" height="16" viewBox="0 0 16 16" fill="none" xmlns="http://www.w3.org/2000/svg">
<g clip-path="url(#clip0_1_2)">
<path fill-rule="evenodd" clip-rule="evenodd" d="M11.4037 12.1951C13.5529 11.9557 15.4242 10.7205 15.6594 9.59184C16.03 7.8139 15.9994 5.25306 15.9994 5.25306C15.9994 1.78217 13.5615 0.764796 13.5615 0.764796C12.3323 0.23818 10.2215 0.0167234 8.02856 0H7.97468C5.78176 0.0167234 3.67238 0.23818 2.44307 0.764796C2.44307 0.764796 0.0050664 1.78217 0.0050664 5.25306C0.0050664 5.46347 0.00390046 5.68479 0.00268669 5.91519C-0.000684223 6.55506 -0.00442412 7.26497 0.0154169 8.00596C0.103951 11.4003 0.682563 14.7456 4.04703 15.5762C5.59832 15.9592 6.93021 16.0394 8.00287 15.9844C9.94812 15.8838 11.0401 15.3369 11.0401 15.3369L10.976 14.0204C10.976 14.0204 9.58585 14.4292 8.02468 14.3794C6.47793 14.3299 4.84504 14.2238 4.59487 12.4524C4.57177 12.2968 4.56022 12.1304 4.56022 11.9557C4.56022 11.9557 6.0786 12.3019 8.00287 12.3841C9.1795 12.4345 10.2829 12.3198 11.4037 12.1951ZM13.1237 9.72499V5.52232C13.1237 4.66339 12.8892 3.98083 12.4184 3.47585C11.9327 2.97087 11.2966 2.71201 10.5072 2.71201C9.59371 2.71201 8.90198 3.03949 8.44471 3.69455L8.00001 4.38978L7.5554 3.69455C7.09804 3.03949 6.40631 2.71201 5.49288 2.71201C4.70337 2.71201 4.06737 2.97087 3.58173 3.47585C3.11078 3.98083 2.87632 4.66339 2.87632 5.52232V9.72499H4.66132V5.64585C4.66132 4.78597 5.04919 4.34952 5.82502 4.34952C6.68282 4.34952 7.11282 4.86726 7.11282 5.89101V8.12376H8.88729V5.89101C8.88729 4.86726 9.31721 4.34952 10.175 4.34952C10.9508 4.34952 11.3387 4.78597 11.3387 5.64585V9.72499H13.1237Z" fill="#828282"/>
</g>
<defs>
<clipPath id="clip0_1_2">
<rect width="16" height="16" fill="white"/>
</clipPath>
</defs>
</svg>
